<svg xmlns="http://www.w3.org/2000/svg" width="812" height="1322" preserveAspectRatio="none"
    style="display:block" viewBox="0 0 1258 2048">
    <path fill="#2A4661"
        d="M568.283 691.171A21738 21738 0 0 1 625.38 466.55l18.44-72.509c3.911-15.446 7.242-31.422 12.689-46.411 2.743-7.548 7.189-15.191 13.487-20.321 7.79-6.347 19.518-7.751 29.25-8.539 24.072-1.949 49.024-.827 73.206-.821q60.5.26 120.997-.485l138.441-.585c29.94-.237 61.19-2.215 90.95.597 13.73 2.732 26.77 7.359 34.84 19.662 8.45 12.891 4.58 28.214 1.48 42.239-10.67 48.433-24.14 96.511-36.28 144.613l-49.62 203.788-18 72.018c-4 15.794-8.61 31.43-10.85 47.609-3.92 28.372-1.21 65.984-1.49 95.369-.98 75.696-1.26 151.406-.84 227.116l.01 388.01c-.12 77.66-1.49 155.54-.12 233.17 21.74 2.74 149.47 18.13 161.5 26.84 7 5.47 10.03 12.24 11.07 21.05.86 7.24.47 15.48-4.35 21.36-2.32 2.83-5.49 4.94-8.86 6.28-12.44 4.95-25.94 8.4-38.74 12.39l-72.42 22.59-79.24 24.87c-26.792 8.47-53.85 18.71-82.049 20.97-16.497 1.32-32.839-.13-49.189-2.41-21.696-3.02-43.297-7.64-64.825-11.69l-105.215-19.53-119.509-21.69c-21.977-3.98-44.326-7.42-66.108-12.32-6.575-1.48-16.104-3.61-21.388-7.71-4.03-3.14-5.337-9.22-5.61-14.04-.411-7.24.928-14.09 2.804-21.04 4.703-6.58 10.326-10.34 17.814-13.37 15.749-6.37 34.801-8.92 51.454-12.61a6454 6454 0 0 1 97.258-21.11l-.364-366.67-.061-111.81c-.011-19.89-.634-40.01.163-59.87.245-6.11.525-13 2.922-18.68 3.122-7.4 8.498-10.73 15.642-13.66 3.386-1.3 6.759-2.62 10.12-3.97 13.155-5.33 25.187-12.7 30.812-26.34 6.209-15.05 6.09-33.72-.287-48.72a57.72 57.72 0 0 0-31.723-30.72c-20.385-8.24-129.636-13.76-158.078-15.94-12.427-.96-28.554-.62-40.105-5.39-.263-.11-.524-.23-.786-.34-1.432.58-2.086.4-2.715 1.9-1.402 3.35-1.075 34.3-1.407 40.88-1.913 37.99-6.025 75.89-9.794 113.73-7.68 78-16.159 155.93-25.434 233.76-8.256 70.81-17.265 141.85-21.55 213.04-2.606 43.28-2.54 86.52-1.974 129.85.274 20.93-.52 42.49 2.35 63.27 15.279 9.63 30.732 17.69 47.772 23.82 21.185 7.62 77.307 17.21 90.781 31.18 4.311 4.47 6.857 10.11 6.686 16.37-.195 7.15-4.16 13.5-9.267 18.28-31.821 29.79-134.885 21.85-178.044 20.07-1.56 3.76-3.745 7.39-5.661 10.99-16.378 8.61-55.878 6.61-75.065 5.29-8.816-.6-19.742-2.81-25.736-9.96-9.664-11.53-5.76-31.99-4.461-45.85-28.407 8.44-58.369 8.13-87.665 10.23-3.089 2.6-5.999 5.51-8.967 8.26-20.244 5.13-67.524 8.53-88.46 5.13-6.567-1.06-13.28-3.59-17.262-9.21-13.19-18.63-2.776-70.06 1.159-92.08-2.217-50.46.219-101.32 3.187-151.71a3734 3734 0 0 1 15.674-181.78c5.784-48.96 15.029-98.17 17.903-147.36 4.639-79.39 6.431-160.02 3.003-239.48-1.071-24.84-5.801-49.27-7.935-74-1.649-19.12-.962-38.53-.64-57.69l-5.719-6.31c-2.555-15.04-.471-31.733.167-46.954l3.318-74.29c.482-10.463 2.093-22.507.669-32.839-6.132-7.022-11.869-14.555-16.502-22.66-7.93-13.872-12.527-29.507-14.633-45.292-4.483-33.596-2.216-68.207-2.193-102.043-.27-36.528.244-73.058 1.542-109.564.706-19.873.12-40.686 5.331-59.989 1.838-10.266 4.496-21.081 7.786-30.97 24.04-72.255 91.842-122.849 157.476-155.643 44.318-4.959 85.149 8.384 122.379 31.59 9.147 5.702 18.517 15.132 28.119 19.424 68.387 46.489 96.729 74.538 119.761 154.663 4.324 15.043 8.806 30.097 12.196 45.381 9.055 40.825 15.253 65.504 37.486 101.947" />
    <path fill="#D28C52"
        d="M248.342 338.166c44.318-4.959 85.149 8.384 122.379 31.59 9.147 5.702 18.517 15.132 28.119 19.424 68.387 46.489 96.729 74.538 119.761 154.663 4.324 15.043 8.806 30.097 12.196 45.381 9.055 40.825 15.253 65.504 37.486 101.947l4.857 9.505a1196 1196 0 0 0 32.168-11.825c15.181-5.584 30.076-11.853 45.009-18.058 13.65-5.625 26.846-10.873 41.364-13.714 18.675 3.147 35.689 9.355 46.99 25.514 10.461 14.958 14.103 35.441 14.341 53.454-7.701 14.693-15.031 28.024-27.113 39.676-13.404 10.271-29.601 18.474-44.115 27.183-25.864 15.52-51.837 31.81-78.719 45.52-15.621 6.911-31.139 12.787-47.47 17.855-11.667.966-22.107.371-33.685-1.295a842 842 0 0 1-25.328-10.094c.004 7.252.52 14.996-.417 22.168.254 15.348 1.005 31.062-.104 46.376.201 9.78-2.809 29.2 1.684 37.392 1.257 10.738-.845 23.015-1.429 33.859-.672 12.443-.551 24.953-.36 37.413-16.94 6.38-33.021 13.13-50.802 17.04-32.268 7.08-65.413 8.33-98.339 8.68-81.259.87-158.452-7.25-235.715-33.1l-5.719-6.31c-2.555-15.04-.471-31.733.167-46.954l3.318-74.29c.482-10.463 2.093-22.507.669-32.839-6.132-7.022-11.869-14.555-16.502-22.66-7.93-13.872-12.527-29.507-14.633-45.292-4.483-33.596-2.216-68.207-2.193-102.043-.27-36.528.244-73.058 1.542-109.564.706-19.873.12-40.686 5.331-59.989 1.838-10.266 4.496-21.081 7.786-30.97 24.04-72.255 91.842-122.849 157.476-155.643" />
    <path fill="#B26B3C"
        d="M324.115 572.841c10.461 16.308 16.727 34.59 25.133 51.948 25.696 53.056 50.645 106.843 81.578 157.123 9.831 15.979 20.085 32.639 32.833 46.448 9.296 10.068 21.031 17.797 32.062 25.828-.06 7.643-.19 15.247.444 22.872.254 15.348 1.005 31.062-.104 46.376-.663-.557-1.52-1.168-2.117-1.806-4.784-5.104-20.24-6.205-27.252-9.659-10.593-5.218-19.822-13.406-27.923-21.909-48.098-50.487-74.509-144.871-93.498-211.16-10.455-36.496-22.072-67.494-21.156-106.061M83.08 524.779c2.54 3.13 2.903 6.58 3.314 10.463 1.333 12.603 1.29 25.327 2.098 37.968 1.166 18.22 3.07 36.458 4.864 54.628 4.816 48.747 11.865 97.398 15.291 146.258 1.948 27.789 4.685 57.735 1.958 85.512-.167 1.698-.444 3.123-1.07 4.719-6.132-7.022-11.869-14.555-16.502-22.66-7.93-13.872-12.527-29.507-14.633-45.292-4.483-33.596-2.216-68.207-2.193-102.043-.27-36.528.244-73.058 1.542-109.564.706-19.873.12-40.686 5.331-59.989" />
    <path fill="#FBFCFC"
        d="M605.308 688.851c4.21-23.009 10.449-45.655 16.178-68.321l25.213-99.624 21.932-86.217c3.723-14.388 6.81-29.518 11.677-43.551 2.25-6.484 5.505-15.233 11.335-19.291 5.113-3.558 9.95-4.533 16.047-4.94 26.028-1.738 52.934-.416 79.078-.404l149.895.053 92.617-.072c14.92-.012 32.91-1.929 47.4 1.023 3.29.67 6.58 3.493 8.4 6.221 6.25 9.363 1.12 25.523-1.3 35.601l-98.618 400.669-36.194 149.997c-5.918 24.803-10.461 50.565-17.922 74.915-2.696 8.81-3.745 14.91-12.04 19.87-7.665 4.59-15.877 4.64-24.554 4.54-22.895-.25-46.359-3.34-69.262-4.88l-147.917-9.86-94.138-6.23c-15.445-1.01-33.507-.34-48.368-4.38-4.194-1.14-9.834-3.22-12.141-7.17-3.279-5.62-2.723-15-1.915-21.2 2.089-16.031 7.786-32.494 11.813-48.221l23.071-91.098c16.331-5.068 31.849-10.944 47.47-17.855 26.882-13.71 52.855-30 78.719-45.52 14.514-8.709 30.711-16.912 44.115-27.183 12.082-11.652 19.412-24.983 27.113-39.676-.238-18.013-3.88-38.496-14.341-53.454-11.301-16.159-28.315-22.367-46.99-25.514-14.518 2.841-27.714 8.089-41.364 13.714-14.933 6.205-29.828 12.474-45.009 18.058" />
    <path fill="#9FC1D3"
        d="M874.183 599.127c19.605.978 99.757-1.874 111.549 6.132 4.585 6.454 3.541 16.381 2.304 23.762-2.557 15.248-7.154 30.488-10.966 45.47-4.293 16.867-7.541 35.556-15.052 51.333-2.245 4.716-5.06 8.017-8.826 11.595-3.383 1.074-6.709 1.967-10.261 2.239-15.288 1.17-104.545.418-113.551-4.928-4.011-2.381-6.495-10.606-8.22-14.85 8.487-5.121 16.161-12.637 21.121-21.241 10.713-18.585 8.344-46.652 3.086-66.432 7.511-2.092 15.633-3.706 22.913-6.43 4.104-1.535 7.992-3.899 9.737-8.123 2.589-6.263-1.218-12.955-3.834-18.527" />
    <path fill="#E0A972"
        d="M603.065 848.426c26.882-13.71 52.855-30 78.719-45.52 14.514-8.709 30.711-16.912 44.115-27.183.201.062.399.129.601.186 7.479 2.077 25.186-2.66 29.624 5.053 2.417 4.2 1.483 12.162.832 16.742-2.096 14.752-7.272 29.804-11.195 44.18-4.544 16.654-8.485 33.89-14.142 50.194-2.262 6.52-6.598 18.183-13.161 21.505-3.749 1.898-8.858 2.392-12.987 2.583-13.586.628-93.8-2.784-102.798-6.116-3.88-1.436-6.123-3.366-7.743-7.172-7.006-16.455 12.078-40.929 8.135-54.452M801.618 605.153c24.999-6.668 46.8-7.855 72.565-6.026 2.616 5.572 6.423 12.264 3.834 18.527-1.745 4.224-5.633 6.588-9.737 8.123-7.28 2.724-15.402 4.338-22.913 6.43 5.258 19.78 7.627 47.847-3.086 66.432-4.96 8.604-12.634 16.12-21.121 21.241-20.926 9.661-45.193 14.84-68.148 16.167-.238-18.013-3.88-38.496-14.341-53.454-11.301-16.159-28.315-22.367-46.99-25.514 17.008-7.312 31.952-18.215 48.667-26.087 20.023-9.43 41.613-15.751 61.27-25.839" />
    <path fill="#9FC1D3"
        d="M650.317 670.793c5.088-19.531 8.116-54.361 21.628-69.523 4.953-5.558 17.166-6.915 24.153-7.153 13.032-.445 26.272.682 39.323.864 15.808.221 37.192-2.084 52.133 1.511 5.566 1.339 9.997 4.804 14.064 8.661-19.657 10.088-41.247 16.409-61.27 25.839-16.715 7.872-31.659 18.775-48.667 26.087-14.518 2.841-27.714 8.089-41.364 13.714M823.886 778.354c14.784-1.016 105.702 1.49 114.912 7.051 2.076 1.253 2.899 3.956 3.357 6.238 1.133 5.637.855 11.669.053 17.329-2.382 16.798-20.679 94.289-28.777 105.443-4.477 6.166-11.589 8.092-18.692 9.519q-5.65.236-11.304.162c-16.717-.27-33.592-2.402-50.3-3.465-15.016-.955-30.689-.742-45.545-3.006-2.754-.42-6.639-1.013-8.559-3.148-3.418-3.8-3.789-10.236-3.61-15.099.504-13.758 19.783-89.992 25.779-103.617 2.795-6.352 5.709-10.425 10.82-15.113 3.879-1.153 7.875-1.678 11.866-2.294M1005.14 419.502c8.19-.04 19.35-1.119 25.63 5.251 2.99 3.035 3.84 5.527 3.68 9.789-.53 14.4-21.94 99.137-28.01 112.72-1.95 4.366-5.46 7.423-8.899 10.635-15.949 4.332-80.512 1.093-101.791 1.168-8.481.124-19.942 1.008-26.667-5.057-3.602-3.249-4.18-6.305-4.212-10.953-.097-13.926 18.497-87.125 24.422-102.223 2.228-5.676 5.321-11.646 9.692-15.984 1.465-1.455 2.743-2.52 4.772-3.103 17.011-4.892 79.808-2.264 101.383-2.243M735.993 418.324c15.56-1.73 32.596-.477 48.293-.5 14.228-.02 29.38-1.294 43.504.281 4.885.545 10.99 1.505 15.097 4.424 2.704 1.922 3.713 4.446 4.18 7.661.711 4.888.252 9.931-.651 14.762-2.939 15.715-23.976 91.466-32.073 102.038-4.639 6.057-9.849 6.869-17.036 7.919-18.51.487-96.932.842-108.925-5.492-1.612-1.798-2.333-3.541-2.791-5.882-.987-5.056-.597-10.491.17-15.548 2.74-18.049 20.335-87.93 29.594-100.5 4.909-6.663 12.991-8.064 20.638-9.163M574.112 957.397c20.792-1.144 314.53 13.774 319.767 15.767 1.675 2.57 1.11 5.178 1.108 8.198-76.569-1.191-153.432-6.647-229.906-10.685-18.017-.951-76.495-1.915-90.402-6.165-1.485-2.611-.87-4.254-.567-7.115" />
    <path fill="#2A4661"
        d="M928.858 1156.86c1.91 39.32.945 78.94.981 118.3l.198 186.42 1.9 401.82c36.712-7.81 72.983-18.97 109.113-29.12.83-14.42.93-28.77.92-43.21 21.74 2.74 149.47 18.13 161.5 26.84 7 5.47 10.03 12.24 11.07 21.05.86 7.24.47 15.48-4.35 21.36-2.32 2.83-5.49 4.94-8.86 6.28-12.44 4.95-25.94 8.4-38.74 12.39l-72.42 22.59-79.24 24.87c-26.792 8.47-53.85 18.71-82.049 20.97-16.497 1.32-32.839-.13-49.189-2.41-21.696-3.02-43.297-7.64-64.825-11.69l-105.215-19.53-119.509-21.69c-21.977-3.98-44.326-7.42-66.108-12.32-6.575-1.48-16.104-3.61-21.388-7.71-4.03-3.14-5.337-9.22-5.61-14.04-.411-7.24.928-14.09 2.804-21.04 4.703-6.58 10.326-10.34 17.814-13.37 15.749-6.37 34.801-8.92 51.454-12.61a6454 6454 0 0 1 97.258-21.11l-.364-366.67-.061-111.81c-.011-19.89-.634-40.01.163-59.87.245-6.11.525-13 2.922-18.68 3.122-7.4 8.498-10.73 15.642-13.66 1.566 1.81 2.994 2.65 5.333 3.19 14.426 3.39 30.77 3.52 45.588 4.79 25.273 2.28 50.557 4.42 75.853 6.41 28.472 2.07 57.425 7.16 81.031-13.17 18.659-16.08 28.798-40.77 36.384-63.57" />
    <path fill="#1B2F44"
        d="M1203.47 1817.91c7 5.47 10.03 12.24 11.07 21.05.86 7.24.47 15.48-4.35 21.36-2.32 2.83-5.49 4.94-8.86 6.28-12.44 4.95-25.94 8.4-38.74 12.39l-72.42 22.59-79.24 24.87c-26.792 8.47-53.85 18.71-82.049 20.97-16.497 1.32-32.839-.13-49.189-2.41-21.696-3.02-43.297-7.64-64.825-11.69l-105.215-19.53-119.509-21.69c-21.977-3.98-44.326-7.42-66.108-12.32-6.575-1.48-16.104-3.61-21.388-7.71-4.03-3.14-5.337-9.22-5.61-14.04-.411-7.24.928-14.09 2.804-21.04 5.449 3.87 11.088 7.27 17.406 9.54 13.502 4.87 29.107 6.49 43.224 9.08 34.371 6.31 68.834 11.51 103.27 17.36l157.126 26.77c32.908 5.59 69.15 15.71 102.531 13.54 7.582-.49 15.563-2.11 22.918-4.01 14.659-3.78 29.063-9.08 43.542-13.53l90.642-27.77 64.37-19.85c16.32-5.04 33.28-9.61 48.66-17.11 7.76-3.78 7.22-5.21 9.94-13.1" />
    <path fill="#1B2F44"
        d="M1122.84 317.476c13.73 2.732 26.77 7.359 34.84 19.662 8.45 12.891 4.58 28.214 1.48 42.239-10.67 48.433-24.14 96.511-36.28 144.613l-49.62 203.788-18 72.018c-4 15.794-8.61 31.43-10.85 47.609-3.92 28.372-1.21 65.984-1.49 95.369-.98 75.696-1.26 151.406-.84 227.116l.01 388.01c-.12 77.66-1.49 155.54-.12 233.17.01 14.44-.09 28.79-.92 43.21-36.13 10.15-72.401 21.31-109.113 29.12l-1.9-401.82-.198-186.42c-.036-39.36.929-78.98-.981-118.3-7.586 22.8-17.725 47.49-36.384 63.57-23.606 20.33-52.559 15.24-81.031 13.17-25.296-1.99-50.58-4.13-75.853-6.41-14.818-1.27-31.162-1.4-45.588-4.79-2.339-.54-3.767-1.38-5.333-3.19 3.386-1.3 6.759-2.62 10.12-3.97 13.155-5.33 25.187-12.7 30.812-26.34 6.209-15.05 6.09-33.72-.287-48.72a57.72 57.72 0 0 0-31.723-30.72c-20.385-8.24-129.636-13.76-158.078-15.94-12.427-.96-28.554-.62-40.105-5.39-.263-.11-.524-.23-.786-.34-.874-3.29-2.154-7.17-.964-10.38 14.557-2.16 63.045 3.72 81.527 5.11l175.751 12.55 100.413 7.51c21.954 1.57 59.654 6.98 80.345 1.95 10.232-2.48 16.258-7.01 21.613-16.13 3.954-6.74 6.398-14.34 8.326-21.88 5.304-20.72 8.833-41.94 13.918-62.74l88.609-367.012 45.09-184.009 14.29-57.974c3.42-13.897 7.33-27.953 9.21-42.153 1.94-14.748-6.68-21.525-9.75-34.405-.06-.249-.1-.5-.16-.751M213.77 1863.52c16.632 14.01 33.128 18.77 53.741 24.36 5.139 1.39 11.643 2.39 16.3 4.92l.156 1.43c5.264 6.82 9.902 9.79 18.371 11.69 30.188 6.76 75.216 3.68 104.211-7.11 9.945-3.7 18.649-8.87 27.549-14.59 15.279 9.63 30.732 17.69 47.772 23.82 21.185 7.62 77.307 17.21 90.781 31.18 4.311 4.47 6.857 10.11 6.686 16.37-.195 7.15-4.16 13.5-9.267 18.28-31.821 29.79-134.885 21.85-178.044 20.07-1.56 3.76-3.745 7.39-5.661 10.99-16.378 8.61-55.878 6.61-75.065 5.29-8.816-.6-19.742-2.81-25.736-9.96-9.664-11.53-5.76-31.99-4.461-45.85-28.407 8.44-58.369 8.13-87.665 10.23-3.089 2.6-5.999 5.51-8.967 8.26-20.244 5.13-67.524 8.53-88.46 5.13-6.567-1.06-13.28-3.59-17.262-9.21-13.19-18.63-2.776-70.06 1.159-92.08 9.284.25 18.768 1.87 28.071 2.51 22.407 1.63 44.933.24 66.971-4.13 12.964-2.56 25.146-9.48 37.944-11.47.291-.05.584-.09.876-.13" />
    <path fill="#FBFCFC"
        d="M274.351 1449.48c3.641 46.29-1.72 93.8-1.983 140.23-.364 64.28 3.917 128.83 7.396 193.01.873 16.11 7.869 102.24 4.047 110.08-4.657-2.53-11.161-3.53-16.3-4.92-20.613-5.59-37.109-10.35-53.741-24.36 2.084-33.75 8.297-66.92 12.461-100.42 3.95-31.78 6.541-63.61 11.195-95.33 10.722-73.08 24.806-145.47 36.925-218.29M496.582 854.892a842 842 0 0 0 25.328 10.094 4700 4700 0 0 0-24.165 95.842c-4.493-8.192-1.483-27.612-1.684-37.392 1.109-15.314.358-31.028.104-46.376.937-7.172.421-14.916.417-22.168" />
    <path fill="#1B2F44"
        d="M270.52 278.235c-1.209-3.448-2.585-6.822-3.549-10.353-3.746-13.718-4.554-28.549-7.093-42.559-8.61-47.498-20.586-96.422 5.591-140.857 15.403-26.146 39.331-49.16 69.303-56.738 15.62-3.95 32.716-3.628 48.563-1.229 34.898 5.283 64.051 22.969 96.666 28.234 11.547 1.864 44.168-.04 51.017 4.577 6.036 4.068 9.806 12.18 10.769 19.183 1.464 10.64-1.878 21.991-8.477 30.417-6.89 8.799-14.343 11.247-25.068 12.485 2.293 16.311 5.633 33.679 3.476 50.169-1.172 8.969-5.449 17.201-4.886 26.4 1.298 21.227 11.048 40.977 13.676 61.921-1.723 3.198-3.336 6.527-5.443 9.491-6.352 2.881-12.434 4.007-19.305 4.852-6.544 21.469-13.462 53.728-34.564 65.274-11.892 6.508-26.562 4.778-39.007.919-4.848-1.504-9.646-3.624-14.269-5.715-6.205 18.243-10.921 34.999-9.08 54.474-9.602-4.292-18.972-13.722-28.119-19.424-37.23-23.206-78.061-36.549-122.379-31.59 12.222-15.142 19.342-40.92 22.178-59.931" />
    <path fill="#E0A972"
        d="M471.745 115.693c12.209 1.588 24.466 3.05 36.497 5.702 2.293 16.311 5.633 33.679 3.476 50.169-1.172 8.969-5.449 17.201-4.886 26.4 1.298 21.227 11.048 40.977 13.676 61.921-1.723 3.198-3.336 6.527-5.443 9.491-6.352 2.881-12.434 4.007-19.305 4.852-6.544 21.469-13.462 53.728-34.564 65.274-11.892 6.508-26.562 4.778-39.007.919-4.848-1.504-9.646-3.624-14.269-5.715-6.205 18.243-10.921 34.999-9.08 54.474-9.602-4.292-18.972-13.722-28.119-19.424-37.23-23.206-78.061-36.549-122.379-31.59 12.222-15.142 19.342-40.92 22.178-59.931 17.143 6.722 35.262 9.47 53.136 3.589 23.094-7.598 33.877-26.808 43.986-47.222.859-4.888 1.072-9.91 1.438-14.856-.914-8.94-1.751-18.262.258-27.108 1.998-8.8 7.141-15.904 14.835-20.636 4.712-2.899 10.01-4.46 15.501-2.869 13.687 3.966 17.887 17.595 24.235 28.533 1.654 2.851 2.552 3.092 5.602 3.897 2.047-.32 3.818-.741 5.52-1.988 9.309-6.816 27.319-46.034 31.26-57.881 2.852-8.57 4.201-17.087 5.454-26.001" />
    <path fill="#B26B3C"
        d="M369.08 219.746c8.801 9.309 17.504 18.77 23.973 29.908-8.908-4.412-16.703-10.476-25.411-15.052.859-4.888 1.072-9.91 1.438-14.856" />
</svg>