<svg xmlns="http://www.w3.org/2000/svg" version="1.1" xmlns:xlink="http://www.w3.org/1999/xlink" width="120" height="120"><svg xmlns="http://www.w3.org/2000/svg" viewBox="-10 0 120 120"><path fill="#25a6d8" d="M87.9 64.3 71.2 46.5l-.6-.7 1.7-1.7 4.9-4.9c3.8-4.2 6.4-8.6 6.7-14.4.3-5.2-2-10.6-5.8-14.1C67.1.5 55.2 4.6 48.3 12S22.5 39.3 18.7 43.8c-3 3.5-5.9 6.9-8.5 10.7a36.4 36.4 0 0 0-2.1 35.8c3.5 6.5 8.5 12 14.4 16.5 6.4 4.8 14 8 22 8.4 8.3.5 16-2.9 22.7-7.6 4.6-3.2 8.7-6.9 12.7-10.7 3.1-3 6.3-6 8.7-9.5 6.3-9.3 4.6-17.1-.6-23.1ZM59.9 54c1.3 1.2 15.9 16.3 16.9 17.5 3.2 3.2 2.5 6.9.4 8.9-3.1 3.9-11 11-14.7 14.1-15 12.9-26.8 5.5-33.1 1.1-2.5-2-4.7-4.2-6.7-6.7-9.2-11.1-4.7-23.5.6-30.3l4.6-5.4c6.3-7.4 13.1-14.3 19.7-21.4 2-2.2 8.7-9.4 10.6-10.9 2.8-2.8 6.9-3.7 9.8-1.2 2.1 1.8 4.3 5.6 0 9.9l-9.4 9.7c-3.7 4.3-5.3 9 1.1 14.6Z"></path></svg><style>@media (prefers-color-scheme: light) { :root { filter: none; } }
@media (prefers-color-scheme: dark) { :root { filter: none; } }
</style></svg>