<?xml version="1.0" encoding="UTF-8"?>
<svg xmlns="http://www.w3.org/2000/svg" version="1.1" viewBox="0 0 600 120">
  <defs>
    <style>
      .cls-1 {
        fill: #25a6d8;
      }
    </style>
  </defs>
  <!-- Generator: Adobe Illustrator 28.6.0, SVG Export Plug-In . SVG Version: 1.2.0 Build 709)  -->
  <g>
    <g id="Calque_1">
      <g>
        <g>
          <path class="cls-1" d="M113.6,65c0-17.3,10-24.9,23-24.9s14,2.9,18,8.6c4-5.6,10.3-8.6,18-8.6,13,0,23,7.6,23,24.9v30.2h-16.3v-30.2c0-7.2-3.5-9.7-8.4-9.7s-8.3,2.5-8.3,9.7v30.2h-16.3v-30.2c0-7.2-3.5-9.7-8.3-9.7s-8.4,2.5-8.4,9.7v30.2h-16.3v-30.2Z"/>
          <path class="cls-1" d="M204.1,68.4c0-16.3,11.9-28.2,28.9-28.2s28.6,11.9,28.6,28.2v4.6h-40.5c1.3,6.3,6.1,9.1,11.9,9.1s8.1-1,10.2-3.9h16.8c-3.5,11.1-13.7,18.5-27,18.5s-28.9-11.9-28.9-28.2ZM244.8,62.6c-1.8-5.5-6.2-7.9-11.8-7.9s-10,2.5-11.6,7.9h23.4Z"/>
          <path class="cls-1" d="M267.9,67.7c0-18.7,13.9-27.6,26.1-27.6s11.8,2.5,15.2,7.3v-29.3h16.3v49.7c0,18-12.2,28.8-28.6,28.8s-29-11.6-29-28.9ZM309.1,68.4c0-7.7-5-13-12.4-13s-12.4,5.3-12.4,13,5,13,12.4,13,12.4-5.3,12.4-13Z"/>
          <path class="cls-1" d="M335.5,26.2c0-6,4.5-10.4,10.4-10.4s10.4,4.5,10.4,10.4-4.5,10.4-10.4,10.4-10.4-4.5-10.4-10.4ZM337.8,41.6h16.3v53.6h-16.3v-53.6Z"/>
          <path class="cls-1" d="M364.3,69c0-17.3,11.9-28.9,29-28.9s28.6,11.2,28.6,28.8v26.3h-15v-8.9c-2.8,6.6-8.9,10.3-16.6,10.3-11.9,0-25.9-8.9-25.9-27.6ZM405.5,68.4c0-7.7-5-13-12.4-13s-12.4,5.3-12.4,13,5,13,12.4,13,12.4-5.3,12.4-13Z"/>
          <path class="cls-1" d="M430.3,68.4c0-16.3,11.9-28.2,28.9-28.2s25.7,9.2,28,22.5h-16.5c-1.8-4.5-6.1-7.3-11.5-7.3s-12.4,5.3-12.4,13,5,13,12.4,13,9.7-2.8,11.5-7.3h16.5c-2.3,13.2-13.1,22.5-28,22.5s-28.9-11.9-28.9-28.2Z"/>
          <path class="cls-1" d="M495.4,74V22.6h16.3v19h25.4v14.7h-25.4v17.8c0,5.6,2.6,7.4,6.2,7.4s6.2-1.7,6.2-7.4v-1.6h16.3v1.6c0,15.3-9.1,22.6-22.5,22.6s-22.5-7.3-22.5-22.6Z"/>
          <path class="cls-1" d="M547.6,26.2c0-6,4.5-10.4,10.4-10.4s10.4,4.5,10.4,10.4-4.5,10.4-10.4,10.4-10.4-4.5-10.4-10.4ZM549.9,41.6h16.3v53.6h-16.3v-53.6Z"/>
          <path class="cls-1" d="M580.3,18.1h16.3v77.1h-16.3V18.1Z"/>
        </g>
        <path class="cls-1" d="M87.9,64.3c-1.2-1.4-13.9-14.8-16.7-17.8-.2-.2-.4-.4-.6-.7.5-.4,1.3-1.2,1.7-1.7,1.6-1.5,3.3-3.2,4.9-4.9,3.8-4.2,6.4-8.6,6.7-14.4.3-5.2-2-10.6-5.8-14.1-11-10.2-22.9-6.1-29.8,1.3s-25.8,27.3-29.6,31.8c-3,3.5-5.9,6.9-8.5,10.7-5.9,8.7-8.6,23.9-2.1,35.8,3.5,6.5,8.5,12,14.4,16.5,6.4,4.8,14,8,22,8.4,8.3.5,16-2.9,22.7-7.6,4.6-3.2,8.7-6.9,12.7-10.7,3.1-3,6.3-6,8.7-9.5,6.3-9.3,4.6-17.1-.6-23.1ZM59.9,54c1.3,1.2,15.9,16.3,16.9,17.5,3.2,3.2,2.5,6.9.4,8.9-3.1,3.9-11,11-14.7,14.1-15,12.9-26.8,5.5-33.1,1.1-2.5-2-4.7-4.2-6.7-6.7-9.2-11.1-4.7-23.5.6-30.3,1.5-1.9,3.1-3.6,4.6-5.4,6.3-7.4,13.1-14.3,19.7-21.4,2-2.2,8.7-9.4,10.6-10.9,2.8-2.8,6.9-3.7,9.8-1.2,2.1,1.8,4.3,5.6,0,9.9-2.1,2.3-8.3,8.5-9.4,9.7-3.7,4.3-5.3,9,1.1,14.6Z"/>
      </g>
    </g>
  </g>
</svg>